<?xml version="1.0" encoding="UTF-8" standalone="no"?>
<svg width="200" height="60" viewBox="0 0 200 60" xmlns="http://www.w3.org/2000/svg">
  <style>
    .pet-blue { fill: #0096ab; }
    .pet-teal { fill: #00bed7; }
  </style>
  <text x="10" y="40" font-family="Nunito, Arial, sans-serif" font-size="32" font-weight="700">
    <tspan class="pet-blue">Pet</tspan><tspan class="pet-teal">Kuaför</tspan>
  </text>
  <path class="pet-teal" d="M185,15 C184,11 181,8 177,7 C175,7 174,7 173,8 C171,8 170,9 169,10 C167,13 167,17 169,20 C170,21 171,22 172,23 C174,23 175,23 177,23 C181,22 184,19 185,15 Z" />
  <path class="pet-blue" d="M188,35 C186,31 182,29 178,30 C176,30 174,31 173,32 C172,33 171,34 170,35 C168,39 169,43 172,46 C173,47 175,48 176,48 C177,48 178,48 179,48 C183,47 187,43 188,39 C188,38 188,37 188,35 Z" />
</svg>